<mxfile host="app.diagrams.net" agent="Mozilla/5.0 (X11; Ubuntu; Linux x86_64; rv:138.0) Gecko/20100101 Firefox/138.0" version="26.3.0">
  <diagram name="Class Diagram" id="W69463_VsGmy7O0sprpo">
    <mxGraphModel dx="1753" dy="844" grid="1" gridSize="10" guides="1" tooltips="1" connect="1" arrows="1" fold="1" page="1" pageScale="1" pageWidth="850" pageHeight="1100" math="0" shadow="0">
      <root>
        <mxCell id="0" />
        <mxCell id="1" parent="0" />
        <mxCell id="lTKmuFCjJiPN0zx2JNDY-202" value="&lt;&lt;Boundary&gt;&gt;&#xa;:User" style="shape=umlLifeline;perimeter=lifelinePerimeter;whiteSpace=wrap;html=1;container=1;collapsible=0;recursiveResize=0;outlineConnect=0;" vertex="1" parent="1">
          <mxGeometry x="560" y="1100" width="100" height="1100" as="geometry" />
        </mxCell>
        <mxCell id="lTKmuFCjJiPN0zx2JNDY-203" value="&lt;&lt;Controller&gt;&gt;&#xa;:OfflineMode&#xa;Controller" style="shape=umlLifeline;perimeter=lifelinePerimeter;whiteSpace=wrap;html=1;container=1;collapsible=0;recursiveResize=0;outlineConnect=0;" vertex="1" parent="1">
          <mxGeometry x="710" y="1100" width="100" height="1100" as="geometry" />
        </mxCell>
        <mxCell id="lTKmuFCjJiPN0zx2JNDY-204" value="&lt;&lt;Controller&gt;&gt;&#xa;:OfflineContent&#xa;Manager" style="shape=umlLifeline;perimeter=lifelinePerimeter;whiteSpace=wrap;html=1;container=1;collapsible=0;recursiveResize=0;outlineConnect=0;" vertex="1" parent="1">
          <mxGeometry x="860" y="1100" width="100" height="1100" as="geometry" />
        </mxCell>
        <mxCell id="lTKmuFCjJiPN0zx2JNDY-205" value="&lt;&lt;Controller&gt;&gt;&#xa;:Connectivity&#xa;Manager" style="shape=umlLifeline;perimeter=lifelinePerimeter;whiteSpace=wrap;html=1;container=1;collapsible=0;recursiveResize=0;outlineConnect=0;" vertex="1" parent="1">
          <mxGeometry x="1010" y="1100" width="100" height="1100" as="geometry" />
        </mxCell>
        <mxCell id="lTKmuFCjJiPN0zx2JNDY-206" value="&lt;&lt;Boundary&gt;&gt;&#xa;:LocalStorage&#xa;Service" style="shape=umlLifeline;perimeter=lifelinePerimeter;whiteSpace=wrap;html=1;container=1;collapsible=0;recursiveResize=0;outlineConnect=0;" vertex="1" parent="1">
          <mxGeometry x="1160" y="1100" width="100" height="1100" as="geometry" />
        </mxCell>
        <mxCell id="lTKmuFCjJiPN0zx2JNDY-207" value="&lt;&lt;Boundary&gt;&gt;&#xa;:Notification&#xa;Service" style="shape=umlLifeline;perimeter=lifelinePerimeter;whiteSpace=wrap;html=1;container=1;collapsible=0;recursiveResize=0;outlineConnect=0;" vertex="1" parent="1">
          <mxGeometry x="1310" y="1100" width="100" height="1100" as="geometry" />
        </mxCell>
        <mxCell id="lTKmuFCjJiPN0zx2JNDY-208" value="&lt;&lt;Boundary&gt;&gt;&#xa;:OfflineMap&#xa;Handler" style="shape=umlLifeline;perimeter=lifelinePerimeter;whiteSpace=wrap;html=1;container=1;collapsible=0;recursiveResize=0;outlineConnect=0;" vertex="1" parent="1">
          <mxGeometry x="1460" y="1100" width="100" height="1100" as="geometry" />
        </mxCell>
        <mxCell id="lTKmuFCjJiPN0zx2JNDY-209" value="&lt;&lt;Controller&gt;&gt;&#xa;:Content&#xa;Synchronizer" style="shape=umlLifeline;perimeter=lifelinePerimeter;whiteSpace=wrap;html=1;container=1;collapsible=0;recursiveResize=0;outlineConnect=0;" vertex="1" parent="1">
          <mxGeometry x="1610" y="1100" width="100" height="1100" as="geometry" />
        </mxCell>
        <mxCell id="lTKmuFCjJiPN0zx2JNDY-210" value="opt" style="shape=umlFrame;whiteSpace=wrap;html=1;width=50;height=20;" vertex="1" parent="1">
          <mxGeometry x="530" y="1160" width="1200" height="340" as="geometry" />
        </mxCell>
        <mxCell id="lTKmuFCjJiPN0zx2JNDY-211" value="[Scenario 1: User Downloads Museum Content for Offline Use]" style="text;html=1;align=center;verticalAlign=middle;resizable=0;points=[];autosize=1;strokeColor=none;fillColor=none;fontStyle=1" vertex="1" parent="1">
          <mxGeometry x="580" y="1160" width="350" height="30" as="geometry" />
        </mxCell>
        <mxCell id="lTKmuFCjJiPN0zx2JNDY-212" value="1. Select &quot;Download for Offline Use&quot;" style="html=1;verticalAlign=bottom;endArrow=block;rounded=0;" edge="1" parent="1">
          <mxGeometry width="80" relative="1" as="geometry">
            <mxPoint x="610.0022222222223" y="1200" as="sourcePoint" />
            <mxPoint x="759.2799999999999" y="1200" as="targetPoint" />
            <Array as="points">
              <mxPoint x="679.78" y="1200" />
            </Array>
          </mxGeometry>
        </mxCell>
        <mxCell id="lTKmuFCjJiPN0zx2JNDY-213" value="2. checkConnectivity()" style="html=1;verticalAlign=bottom;endArrow=block;rounded=0;" edge="1" parent="1" source="lTKmuFCjJiPN0zx2JNDY-203" target="lTKmuFCjJiPN0zx2JNDY-205">
          <mxGeometry width="80" relative="1" as="geometry">
            <mxPoint x="610" y="1210" as="sourcePoint" />
            <mxPoint x="690" y="1210" as="targetPoint" />
            <Array as="points">
              <mxPoint x="870" y="1210" />
            </Array>
          </mxGeometry>
        </mxCell>
        <mxCell id="lTKmuFCjJiPN0zx2JNDY-214" value="3. return true" style="html=1;verticalAlign=bottom;endArrow=open;dashed=1;endSize=8;rounded=0;" edge="1" parent="1" source="lTKmuFCjJiPN0zx2JNDY-205" target="lTKmuFCjJiPN0zx2JNDY-203">
          <mxGeometry relative="1" as="geometry">
            <mxPoint x="690" y="1230" as="sourcePoint" />
            <mxPoint x="610" y="1230" as="targetPoint" />
            <Array as="points">
              <mxPoint x="930" y="1230" />
            </Array>
          </mxGeometry>
        </mxCell>
        <mxCell id="lTKmuFCjJiPN0zx2JNDY-215" value="4. getAvailableCategories()" style="html=1;verticalAlign=bottom;endArrow=block;rounded=0;" edge="1" parent="1" source="lTKmuFCjJiPN0zx2JNDY-203" target="lTKmuFCjJiPN0zx2JNDY-204">
          <mxGeometry width="80" relative="1" as="geometry">
            <mxPoint x="610" y="1250" as="sourcePoint" />
            <mxPoint x="690" y="1250" as="targetPoint" />
            <Array as="points">
              <mxPoint x="830" y="1250" />
            </Array>
          </mxGeometry>
        </mxCell>
        <mxCell id="lTKmuFCjJiPN0zx2JNDY-216" value="5. return categories" style="html=1;verticalAlign=bottom;endArrow=open;dashed=1;endSize=8;rounded=0;" edge="1" parent="1" source="lTKmuFCjJiPN0zx2JNDY-204" target="lTKmuFCjJiPN0zx2JNDY-203">
          <mxGeometry relative="1" as="geometry">
            <mxPoint x="690" y="1270" as="sourcePoint" />
            <mxPoint x="610" y="1270" as="targetPoint" />
            <Array as="points">
              <mxPoint x="830" y="1270" />
            </Array>
          </mxGeometry>
        </mxCell>
        <mxCell id="lTKmuFCjJiPN0zx2JNDY-217" value="6. display available categories" style="html=1;verticalAlign=bottom;endArrow=open;dashed=1;endSize=8;rounded=0;" edge="1" parent="1" source="lTKmuFCjJiPN0zx2JNDY-203" target="lTKmuFCjJiPN0zx2JNDY-202">
          <mxGeometry relative="1" as="geometry">
            <mxPoint x="690" y="1290" as="sourcePoint" />
            <mxPoint x="610" y="1290" as="targetPoint" />
            <Array as="points">
              <mxPoint x="680" y="1290" />
            </Array>
          </mxGeometry>
        </mxCell>
        <mxCell id="lTKmuFCjJiPN0zx2JNDY-218" value="7. select categories" style="html=1;verticalAlign=bottom;endArrow=block;rounded=0;" edge="1" parent="1" source="lTKmuFCjJiPN0zx2JNDY-202" target="lTKmuFCjJiPN0zx2JNDY-203">
          <mxGeometry width="80" relative="1" as="geometry">
            <mxPoint x="610" y="1310" as="sourcePoint" />
            <mxPoint x="690" y="1310" as="targetPoint" />
            <Array as="points">
              <mxPoint x="680" y="1310" />
            </Array>
          </mxGeometry>
        </mxCell>
        <mxCell id="lTKmuFCjJiPN0zx2JNDY-219" value="8. getStorageRequirement(categories)" style="html=1;verticalAlign=bottom;endArrow=block;rounded=0;" edge="1" parent="1" source="lTKmuFCjJiPN0zx2JNDY-203" target="lTKmuFCjJiPN0zx2JNDY-204">
          <mxGeometry width="80" relative="1" as="geometry">
            <mxPoint x="610" y="1330" as="sourcePoint" />
            <mxPoint x="690" y="1330" as="targetPoint" />
            <Array as="points">
              <mxPoint x="840" y="1330" />
            </Array>
          </mxGeometry>
        </mxCell>
        <mxCell id="lTKmuFCjJiPN0zx2JNDY-220" value="9. getStorageStats()" style="html=1;verticalAlign=bottom;endArrow=block;rounded=0;" edge="1" parent="1" source="lTKmuFCjJiPN0zx2JNDY-204" target="lTKmuFCjJiPN0zx2JNDY-206">
          <mxGeometry width="80" relative="1" as="geometry">
            <mxPoint x="610" y="1350" as="sourcePoint" />
            <mxPoint x="690" y="1350" as="targetPoint" />
            <Array as="points">
              <mxPoint x="1060" y="1350" />
            </Array>
          </mxGeometry>
        </mxCell>
        <mxCell id="lTKmuFCjJiPN0zx2JNDY-221" value="10. return stats" style="html=1;verticalAlign=bottom;endArrow=open;dashed=1;endSize=8;rounded=0;" edge="1" parent="1" source="lTKmuFCjJiPN0zx2JNDY-206" target="lTKmuFCjJiPN0zx2JNDY-204">
          <mxGeometry relative="1" as="geometry">
            <mxPoint x="690" y="1370" as="sourcePoint" />
            <mxPoint x="610" y="1370" as="targetPoint" />
            <Array as="points">
              <mxPoint x="1060" y="1370" />
            </Array>
          </mxGeometry>
        </mxCell>
        <mxCell id="lTKmuFCjJiPN0zx2JNDY-222" value="11. return requirements" style="html=1;verticalAlign=bottom;endArrow=open;dashed=1;endSize=8;rounded=0;" edge="1" parent="1" source="lTKmuFCjJiPN0zx2JNDY-204" target="lTKmuFCjJiPN0zx2JNDY-203">
          <mxGeometry relative="1" as="geometry">
            <mxPoint x="690" y="1390" as="sourcePoint" />
            <mxPoint x="610" y="1390" as="targetPoint" />
            <Array as="points">
              <mxPoint x="840" y="1390" />
            </Array>
          </mxGeometry>
        </mxCell>
        <mxCell id="lTKmuFCjJiPN0zx2JNDY-223" value="12. display storage requirements" style="html=1;verticalAlign=bottom;endArrow=open;dashed=1;endSize=8;rounded=0;" edge="1" parent="1" source="lTKmuFCjJiPN0zx2JNDY-203" target="lTKmuFCjJiPN0zx2JNDY-202">
          <mxGeometry relative="1" as="geometry">
            <mxPoint x="690" y="1410" as="sourcePoint" />
            <mxPoint x="610" y="1410" as="targetPoint" />
            <Array as="points">
              <mxPoint x="680" y="1410" />
            </Array>
          </mxGeometry>
        </mxCell>
        <mxCell id="lTKmuFCjJiPN0zx2JNDY-224" value="13. confirm download" style="html=1;verticalAlign=bottom;endArrow=block;rounded=0;" edge="1" parent="1" source="lTKmuFCjJiPN0zx2JNDY-202" target="lTKmuFCjJiPN0zx2JNDY-203">
          <mxGeometry width="80" relative="1" as="geometry">
            <mxPoint x="610" y="1430" as="sourcePoint" />
            <mxPoint x="690" y="1430" as="targetPoint" />
            <Array as="points">
              <mxPoint x="680" y="1430" />
            </Array>
          </mxGeometry>
        </mxCell>
        <mxCell id="lTKmuFCjJiPN0zx2JNDY-225" value="14. downloadContent(categories)" style="html=1;verticalAlign=bottom;endArrow=block;rounded=0;" edge="1" parent="1" source="lTKmuFCjJiPN0zx2JNDY-203" target="lTKmuFCjJiPN0zx2JNDY-204">
          <mxGeometry width="80" relative="1" as="geometry">
            <mxPoint x="610" y="1450" as="sourcePoint" />
            <mxPoint x="690" y="1450" as="targetPoint" />
            <Array as="points">
              <mxPoint x="840" y="1450" />
            </Array>
          </mxGeometry>
        </mxCell>
        <mxCell id="lTKmuFCjJiPN0zx2JNDY-226" value="15. saveContent(content, categories)" style="html=1;verticalAlign=bottom;endArrow=block;rounded=0;" edge="1" parent="1" source="lTKmuFCjJiPN0zx2JNDY-204" target="lTKmuFCjJiPN0zx2JNDY-206">
          <mxGeometry width="80" relative="1" as="geometry">
            <mxPoint x="610" y="1470" as="sourcePoint" />
            <mxPoint x="690" y="1470" as="targetPoint" />
            <Array as="points">
              <mxPoint x="1060" y="1470" />
            </Array>
          </mxGeometry>
        </mxCell>
        <mxCell id="lTKmuFCjJiPN0zx2JNDY-227" value="&lt;div&gt;opt&lt;/div&gt;" style="shape=umlFrame;whiteSpace=wrap;html=1;width=50;height=20;" vertex="1" parent="1">
          <mxGeometry x="530" y="1520" width="1200" height="320" as="geometry" />
        </mxCell>
        <mxCell id="lTKmuFCjJiPN0zx2JNDY-228" value="[Scenario 2: User Navigates Museum in Offline Mode (Observer Pattern)]" style="text;html=1;align=center;verticalAlign=middle;resizable=0;points=[];autosize=1;strokeColor=none;fillColor=none;fontStyle=1" vertex="1" parent="1">
          <mxGeometry x="600" y="1520" width="390" height="30" as="geometry" />
        </mxCell>
        <mxCell id="lTKmuFCjJiPN0zx2JNDY-229" value="1. Detects connectivity lost" style="edgeStyle=orthogonalEdgeStyle;html=1;align=left;spacingLeft=2;endArrow=block;rounded=0;" edge="1" parent="1">
          <mxGeometry x="1" y="-91" relative="1" as="geometry">
            <mxPoint x="1060" y="1550" as="sourcePoint" />
            <Array as="points">
              <mxPoint x="1130" y="1550" />
              <mxPoint x="1130" y="1580" />
              <mxPoint x="1065" y="1580" />
            </Array>
            <mxPoint x="1060" y="1580" as="targetPoint" />
            <mxPoint x="-90" y="81" as="offset" />
          </mxGeometry>
        </mxCell>
        <mxCell id="lTKmuFCjJiPN0zx2JNDY-230" value="2. notifyObservers(false) - Observer Pattern" style="html=1;verticalAlign=bottom;endArrow=block;rounded=0;fontStyle=1;strokeWidth=2;" edge="1" parent="1">
          <mxGeometry x="0.0003" width="80" relative="1" as="geometry">
            <mxPoint x="1060" y="1600" as="sourcePoint" />
            <mxPoint x="760" y="1600" as="targetPoint" />
            <Array as="points">
              <mxPoint x="910" y="1600" />
            </Array>
            <mxPoint as="offset" />
          </mxGeometry>
        </mxCell>
        <mxCell id="lTKmuFCjJiPN0zx2JNDY-231" value="3. update(false) - Observer Pattern" style="html=1;verticalAlign=bottom;endArrow=block;rounded=0;fontStyle=1;strokeWidth=2;" edge="1" parent="1">
          <mxGeometry width="80" relative="1" as="geometry">
            <mxPoint x="760" y="1620" as="sourcePoint" />
            <mxPoint x="760" y="1640" as="targetPoint" />
            <Array as="points">
              <mxPoint x="790" y="1620" />
              <mxPoint x="790" y="1640" />
            </Array>
          </mxGeometry>
        </mxCell>
        <mxCell id="lTKmuFCjJiPN0zx2JNDY-232" value="4. switchToOfflineMode()" style="html=1;verticalAlign=bottom;endArrow=block;rounded=0;" edge="1" parent="1">
          <mxGeometry width="80" relative="1" as="geometry">
            <mxPoint x="760" y="1660" as="sourcePoint" />
            <mxPoint x="760" y="1680" as="targetPoint" />
            <Array as="points">
              <mxPoint x="790" y="1660" />
              <mxPoint x="790" y="1680" />
            </Array>
          </mxGeometry>
        </mxCell>
        <mxCell id="lTKmuFCjJiPN0zx2JNDY-233" value="5. showOfflineNotification()" style="html=1;verticalAlign=bottom;endArrow=block;rounded=0;" edge="1" parent="1" source="lTKmuFCjJiPN0zx2JNDY-203" target="lTKmuFCjJiPN0zx2JNDY-207">
          <mxGeometry width="80" relative="1" as="geometry">
            <mxPoint x="750" y="1700" as="sourcePoint" />
            <mxPoint x="830" y="1700" as="targetPoint" />
            <Array as="points">
              <mxPoint x="1060" y="1700" />
            </Array>
          </mxGeometry>
        </mxCell>
        <mxCell id="lTKmuFCjJiPN0zx2JNDY-234" value="6. display &quot;Limited functionality available&quot;" style="html=1;verticalAlign=bottom;endArrow=open;dashed=1;endSize=8;rounded=0;" edge="1" parent="1" source="lTKmuFCjJiPN0zx2JNDY-207" target="lTKmuFCjJiPN0zx2JNDY-202">
          <mxGeometry relative="1" as="geometry">
            <mxPoint x="830" y="1720" as="sourcePoint" />
            <mxPoint x="750" y="1720" as="targetPoint" />
            <Array as="points">
              <mxPoint x="1010" y="1720" />
            </Array>
          </mxGeometry>
        </mxCell>
        <mxCell id="lTKmuFCjJiPN0zx2JNDY-235" value="7. checkDownloadedContent()" style="html=1;verticalAlign=bottom;endArrow=block;rounded=0;" edge="1" parent="1" source="lTKmuFCjJiPN0zx2JNDY-203" target="lTKmuFCjJiPN0zx2JNDY-204">
          <mxGeometry width="80" relative="1" as="geometry">
            <mxPoint x="750" y="1740" as="sourcePoint" />
            <mxPoint x="830" y="1740" as="targetPoint" />
            <Array as="points">
              <mxPoint x="830" y="1740" />
            </Array>
          </mxGeometry>
        </mxCell>
        <mxCell id="lTKmuFCjJiPN0zx2JNDY-236" value="8. return content status" style="html=1;verticalAlign=bottom;endArrow=open;dashed=1;endSize=8;rounded=0;" edge="1" parent="1" source="lTKmuFCjJiPN0zx2JNDY-204" target="lTKmuFCjJiPN0zx2JNDY-203">
          <mxGeometry relative="1" as="geometry">
            <mxPoint x="830" y="1760" as="sourcePoint" />
            <mxPoint x="750" y="1760" as="targetPoint" />
            <Array as="points">
              <mxPoint x="830" y="1760" />
            </Array>
          </mxGeometry>
        </mxCell>
        <mxCell id="lTKmuFCjJiPN0zx2JNDY-237" value="9. loadOfflineMap()" style="html=1;verticalAlign=bottom;endArrow=block;rounded=0;" edge="1" parent="1" source="lTKmuFCjJiPN0zx2JNDY-203" target="lTKmuFCjJiPN0zx2JNDY-208">
          <mxGeometry width="80" relative="1" as="geometry">
            <mxPoint x="750" y="1780" as="sourcePoint" />
            <mxPoint x="830" y="1780" as="targetPoint" />
            <Array as="points">
              <mxPoint x="1170" y="1780" />
            </Array>
          </mxGeometry>
        </mxCell>
        <mxCell id="lTKmuFCjJiPN0zx2JNDY-238" value="10. return map data" style="html=1;verticalAlign=bottom;endArrow=open;dashed=1;endSize=8;rounded=0;" edge="1" parent="1" source="lTKmuFCjJiPN0zx2JNDY-208" target="lTKmuFCjJiPN0zx2JNDY-203">
          <mxGeometry relative="1" as="geometry">
            <mxPoint x="830" y="1800" as="sourcePoint" />
            <mxPoint x="750" y="1800" as="targetPoint" />
            <Array as="points">
              <mxPoint x="1170" y="1800" />
            </Array>
          </mxGeometry>
        </mxCell>
        <mxCell id="lTKmuFCjJiPN0zx2JNDY-239" value="11. display offline map" style="html=1;verticalAlign=bottom;endArrow=open;dashed=1;endSize=8;rounded=0;" edge="1" parent="1" source="lTKmuFCjJiPN0zx2JNDY-203" target="lTKmuFCjJiPN0zx2JNDY-202">
          <mxGeometry relative="1" as="geometry">
            <mxPoint x="830" y="1820" as="sourcePoint" />
            <mxPoint x="750" y="1820" as="targetPoint" />
            <Array as="points">
              <mxPoint x="680" y="1820" />
            </Array>
          </mxGeometry>
        </mxCell>
        <mxCell id="lTKmuFCjJiPN0zx2JNDY-240" value="opt" style="shape=umlFrame;whiteSpace=wrap;html=1;width=50;height=20;" vertex="1" parent="1">
          <mxGeometry x="530" y="1860" width="1200" height="320" as="geometry" />
        </mxCell>
        <mxCell id="lTKmuFCjJiPN0zx2JNDY-241" value="[Scenario 3: System Synchronizes Data When Returning Online (Observer Pattern)]" style="text;html=1;align=center;verticalAlign=middle;resizable=0;points=[];autosize=1;strokeColor=none;fillColor=none;fontStyle=1" vertex="1" parent="1">
          <mxGeometry x="610" y="1860" width="440" height="30" as="geometry" />
        </mxCell>
        <mxCell id="lTKmuFCjJiPN0zx2JNDY-242" value="1. Detects connectivity restored" style="edgeStyle=orthogonalEdgeStyle;html=1;align=left;spacingLeft=2;endArrow=block;rounded=0;" edge="1" parent="1">
          <mxGeometry x="-1" y="-91" relative="1" as="geometry">
            <mxPoint x="1060" y="1900" as="sourcePoint" />
            <Array as="points">
              <mxPoint x="1130" y="1900" />
              <mxPoint x="1130" y="1930" />
            </Array>
            <mxPoint x="1060" y="1930" as="targetPoint" />
            <mxPoint x="-90" y="-81" as="offset" />
          </mxGeometry>
        </mxCell>
        <mxCell id="lTKmuFCjJiPN0zx2JNDY-243" value="2. notifyObservers(true) - Observer Pattern" style="html=1;verticalAlign=bottom;endArrow=block;rounded=0;fontStyle=1;strokeWidth=2;" edge="1" parent="1" source="lTKmuFCjJiPN0zx2JNDY-205" target="lTKmuFCjJiPN0zx2JNDY-203">
          <mxGeometry width="80" relative="1" as="geometry">
            <mxPoint x="750" y="1960" as="sourcePoint" />
            <mxPoint x="830" y="1960" as="targetPoint" />
            <Array as="points">
              <mxPoint x="910" y="1960" />
            </Array>
          </mxGeometry>
        </mxCell>
        <mxCell id="lTKmuFCjJiPN0zx2JNDY-244" value="3. update(true) - Observer Pattern" style="html=1;verticalAlign=bottom;endArrow=block;rounded=0;fontStyle=1;strokeWidth=2;" edge="1" parent="1">
          <mxGeometry width="80" relative="1" as="geometry">
            <mxPoint x="760" y="1980" as="sourcePoint" />
            <mxPoint x="760" y="2000" as="targetPoint" />
            <Array as="points">
              <mxPoint x="790" y="1980" />
              <mxPoint x="790" y="2000" />
            </Array>
          </mxGeometry>
        </mxCell>
        <mxCell id="lTKmuFCjJiPN0zx2JNDY-245" value="4. notifyUser(&quot;Connection restored&quot;)" style="html=1;verticalAlign=bottom;endArrow=block;rounded=0;" edge="1" parent="1" source="lTKmuFCjJiPN0zx2JNDY-203" target="lTKmuFCjJiPN0zx2JNDY-207">
          <mxGeometry width="80" relative="1" as="geometry">
            <mxPoint x="750" y="2030" as="sourcePoint" />
            <mxPoint x="830" y="2030" as="targetPoint" />
            <Array as="points">
              <mxPoint x="1060" y="2030" />
            </Array>
          </mxGeometry>
        </mxCell>
        <mxCell id="lTKmuFCjJiPN0zx2JNDY-246" value="5. display &quot;Connection restored&quot;" style="html=1;verticalAlign=bottom;endArrow=open;dashed=1;endSize=8;rounded=0;" edge="1" parent="1" source="lTKmuFCjJiPN0zx2JNDY-207" target="lTKmuFCjJiPN0zx2JNDY-202">
          <mxGeometry relative="1" as="geometry">
            <mxPoint x="830" y="2050" as="sourcePoint" />
            <mxPoint x="750" y="2050" as="targetPoint" />
            <Array as="points">
              <mxPoint x="910" y="2050" />
            </Array>
          </mxGeometry>
        </mxCell>
        <mxCell id="lTKmuFCjJiPN0zx2JNDY-247" value="6. confirm sync" style="html=1;verticalAlign=bottom;endArrow=block;rounded=0;" edge="1" parent="1" source="lTKmuFCjJiPN0zx2JNDY-202" target="lTKmuFCjJiPN0zx2JNDY-203">
          <mxGeometry width="80" relative="1" as="geometry">
            <mxPoint x="750" y="2070" as="sourcePoint" />
            <mxPoint x="830" y="2070" as="targetPoint" />
            <Array as="points">
              <mxPoint x="680" y="2070" />
            </Array>
          </mxGeometry>
        </mxCell>
        <mxCell id="lTKmuFCjJiPN0zx2JNDY-248" value="7. syncUserData()" style="html=1;verticalAlign=bottom;endArrow=block;rounded=0;" edge="1" parent="1" source="lTKmuFCjJiPN0zx2JNDY-203" target="lTKmuFCjJiPN0zx2JNDY-209">
          <mxGeometry width="80" relative="1" as="geometry">
            <mxPoint x="750" y="2100" as="sourcePoint" />
            <mxPoint x="830" y="2100" as="targetPoint" />
            <Array as="points">
              <mxPoint x="1210" y="2100" />
            </Array>
          </mxGeometry>
        </mxCell>
        <mxCell id="lTKmuFCjJiPN0zx2JNDY-249" value="" style="html=1;points=[];perimeter=orthogonalPerimeter;" vertex="1" parent="1">
          <mxGeometry x="1655" y="2120" width="10" height="40" as="geometry" />
        </mxCell>
        <mxCell id="lTKmuFCjJiPN0zx2JNDY-250" value="8. collectPendingChanges()" style="edgeStyle=orthogonalEdgeStyle;html=1;align=left;spacingLeft=2;endArrow=block;rounded=0;entryX=1;entryY=0;" edge="1" parent="1" target="lTKmuFCjJiPN0zx2JNDY-249">
          <mxGeometry relative="1" as="geometry">
            <mxPoint x="1660" y="2100" as="sourcePoint" />
            <Array as="points">
              <mxPoint x="1690" y="2100" />
            </Array>
          </mxGeometry>
        </mxCell>
        <mxCell id="lTKmuFCjJiPN0zx2JNDY-251" value="9. showSyncProgress()" style="html=1;verticalAlign=bottom;endArrow=block;rounded=0;" edge="1" parent="1" source="lTKmuFCjJiPN0zx2JNDY-209" target="lTKmuFCjJiPN0zx2JNDY-207">
          <mxGeometry width="80" relative="1" as="geometry">
            <mxPoint x="750" y="2170" as="sourcePoint" />
            <mxPoint x="830" y="2170" as="targetPoint" />
            <Array as="points">
              <mxPoint x="1510" y="2170" />
            </Array>
          </mxGeometry>
        </mxCell>
        <mxCell id="lTKmuFCjJiPN0zx2JNDY-252" value="&lt;font style=&quot;font-size: 11px;&quot;&gt;Museum App Offline Mode - Sequence Diagrams&lt;/font&gt;" style="shape=umlFrame;whiteSpace=wrap;html=1;pointerEvents=0;recursiveResize=0;container=1;collapsible=0;width=160;" vertex="1" parent="1">
          <mxGeometry x="300" y="1040" width="1690" height="1230" as="geometry" />
        </mxCell>
      </root>
    </mxGraphModel>
  </diagram>
</mxfile>
